<?xml version="1.0" encoding="UTF-8" standalone="no"?>
<!-- Created with Inkscape (http://www.inkscape.org/) -->

<svg
   version="1.1"
   id="svg1"
   width="580"
   height="648.07129"
   viewBox="0 0 580 648.07129"
   sodipodi:docname="feditext.svg"
   inkscape:version="1.3 (0e150ed6c4, 2023-07-21)"
   xmlns:inkscape="http://www.inkscape.org/namespaces/inkscape"
   xmlns:sodipodi="http://sodipodi.sourceforge.net/DTD/sodipodi-0.dtd"
   xmlns="http://www.w3.org/2000/svg"
   xmlns:svg="http://www.w3.org/2000/svg">
  <defs
     id="defs1" />
  <sodipodi:namedview
     id="namedview1"
     pagecolor="#505050"
     bordercolor="#ffffff"
     borderopacity="1"
     inkscape:showpageshadow="0"
     inkscape:pageopacity="0"
     inkscape:pagecheckerboard="1"
     inkscape:deskcolor="#d1d1d1"
     inkscape:zoom="0.60078125"
     inkscape:cx="643.329"
     inkscape:cy="640"
     inkscape:window-width="2752"
     inkscape:window-height="1083"
     inkscape:window-x="0"
     inkscape:window-y="0"
     inkscape:window-maximized="1"
     inkscape:current-layer="layer1" />
  <g
     inkscape:groupmode="layer"
     id="layer1"
     inkscape:label="Image 1">
    <path
       style="fill:#ffffff;stroke-width:1.06266"
       d="m 178.31448,648.0457 c 0,-0.22287 -3.31804,-12.73571 -7.37341,-27.8064 C 166.88568,605.16868 147.31446,532.1071 127.44944,457.88029 85.527985,301.23825 87.197265,307.36035 86.112035,306.27513 c -0.46091,-0.46092 -14.21456,2.67442 -30.56365,6.96742 -16.349101,4.293 -31.208011,8.12989 -33.019811,8.52642 l -3.29419,0.72096 -6.51865,-24.22492 C 2.0285837,258.5489 -0.57989635,248.01817 0.10089365,247.33738 c 0.35549,-0.3555 14.89589035,-4.46095 32.31199035,-9.12325 17.416101,-4.66229 32.068961,-8.85856 32.561911,-9.32506 0.49294,-0.46651 -1.98796,-11.77814 -5.51312,-25.13696 -8.38344,-31.76958 -9.39714,-36.33345 -11.30815,-50.91138 -5.98718,-45.67279 5.20679,-81.973838 33.81088,-109.645688 21.331845,-20.63662 48.691955,-33.6522399 86.724635,-41.2562299 10.997,-2.19866004 13.45942,-2.40581004 14.63412,-1.23110004 1.13937,1.13937004 22.62048,78.49091794 22.62048,81.45430794 0,0.46185 -4.05603,1.64524 -9.0134,2.62977 -24.76037,4.91735 -40.46005,14.46453 -46.82825,28.47687 -3.90046,8.5824 -4.77238,23.27239 -2.19535,36.98665 1.75696,9.35007 12.75641,51.76056 13.65838,52.66253 0.4428,0.44282 121.76948,-31.65747 131.29224,-34.73694 2.50328,-0.8095 3.34893,-1.63052 2.9807,-2.8938 -4.05367,-13.9066 -28.24159,-106.808348 -27.89809,-107.151858 0.45121,-0.4512 89.39306,-24.41748 92.86632,-25.02376 1.37732,-0.24042 4.22212,9.07873 15.31855,50.181108 7.4949,27.76199 14.02122,51.91095 14.50292,53.66433 0.53811,1.9588 1.67104,3.29946 2.93832,3.4771 1.13437,0.15901 18.23012,-4.02521 37.99054,-9.29827 19.76042,-5.27307 36.58465,-9.5874 37.38716,-9.5874 0.80252,0 1.70596,0.83685 2.00766,1.85966 1.15593,3.91878 15.49189,57.51001 17.43187,65.16443 l 2.03934,8.04645 -38.34515,10.31829 c -21.08983,5.67507 -38.67242,10.66171 -39.07242,11.08144 -0.56974,0.59783 48.98078,187.79383 57.02149,215.42048 4.67507,16.06282 13.21057,28.01206 23.68276,33.15461 5.63954,2.76939 6.94454,2.97246 18.81187,2.92708 11.85639,-0.0453 13.49817,-0.31471 23.37852,-3.83585 5.8446,-2.0829 13.37624,-5.04366 16.73685,-6.57947 3.36068,-1.53581 6.11032,-2.55248 6.11032,-2.25928 0,0.29321 4.782,18.33159 10.6266,40.08529 C 575.21806,518.68519 580,537.03684 580,537.71293 c 0,1.63704 -22.9762,11.00659 -38.25578,15.60048 -25.7852,7.75246 -32.1521,8.71291 -57.38362,8.65622 -22.14919,-0.0498 -23.12316,-0.14288 -31.8798,-3.04791 -29.12764,-9.66317 -49.29263,-28.46977 -63.86201,-59.56002 -6.69221,-14.28079 -9.86436,-25.16989 -39.68012,-136.21013 -35.98923,-134.03153 -31.51618,-118.94286 -35.13039,-118.50324 -3.44623,0.41919 -124.18412,32.49994 -128.5205,34.14862 -2.5808,0.98123 -2.81004,1.46652 -2.14776,4.54676 0.75671,3.51942 6.27829,24.2355 54.87563,205.88505 34.86397,130.31626 35.4586,132.60367 34.67505,133.38728 -0.55047,0.55045 -26.01282,7.54339 -82.42129,22.6361 -6.57521,1.75925 -11.95493,3.01638 -11.95493,2.79356 z"
       id="path2-3" />
  </g>
</svg>
