<?xml version="1.0" encoding="UTF-8" standalone="no"?>
<!-- Created with Inkscape (http://www.inkscape.org/) -->

<svg
   xmlns:dc="http://purl.org/dc/elements/1.1/"
   xmlns:cc="http://creativecommons.org/ns#"
   xmlns:rdf="http://www.w3.org/1999/02/22-rdf-syntax-ns#"
   xmlns:svg="http://www.w3.org/2000/svg"
   xmlns="http://www.w3.org/2000/svg"
   xmlns:sodipodi="http://sodipodi.sourceforge.net/DTD/sodipodi-0.dtd"
   xmlns:inkscape="http://www.inkscape.org/namespaces/inkscape"
   width="1000px"
   height="1000px"
   viewBox="0 0 1000 1000"
   version="1.1"
   id="SVGRoot"
   inkscape:version="0.92.4 (5da689c313, 2019-01-14)"
   sodipodi:docname="logo.svg">
  <defs
     id="defs5085">
    <inkscape:path-effect
       effect="spiro"
       id="path-effect6023"
       is_visible="true" />
    <inkscape:path-effect
       effect="spiro"
       id="path-effect6019"
       is_visible="true" />
    <inkscape:path-effect
       effect="spiro"
       id="path-effect6019-2"
       is_visible="true" />
    <inkscape:path-effect
       effect="spiro"
       id="path-effect6023-8"
       is_visible="true" />
  </defs>
  <sodipodi:namedview
     id="base"
     pagecolor="#ffffff"
     bordercolor="#666666"
     borderopacity="1.0"
     inkscape:pageopacity="0.0"
     inkscape:pageshadow="2"
     inkscape:zoom="0.35355339"
     inkscape:cx="1224.3714"
     inkscape:cy="350.3647"
     inkscape:document-units="px"
     inkscape:current-layer="layer6"
     showgrid="false"
     inkscape:window-width="1920"
     inkscape:window-height="1057"
     inkscape:window-x="-8"
     inkscape:window-y="-8"
     inkscape:window-maximized="1"
     showguides="true"
     inkscape:guide-bbox="true" />
  <metadata
     id="metadata5088">
    <rdf:RDF>
      <cc:Work
         rdf:about="">
        <dc:format>image/svg+xml</dc:format>
        <dc:type
           rdf:resource="http://purl.org/dc/dcmitype/StillImage" />
        <dc:title />
      </cc:Work>
    </rdf:RDF>
  </metadata>
  <g
     inkscape:label="head shape"
     inkscape:groupmode="layer"
     id="layer1"
     style="display:inline">
    <a
       id="a5675"
       transform="translate(25.57926,-3.7386984)"
       style="fill:#df8958;fill-opacity:1">
      <path
         style="fill:#df8958;fill-opacity:1;stroke:none;stroke-width:1.27370083;stroke-miterlimit:4;stroke-dasharray:none;stroke-opacity:1"
         d="m 874.93713,572.26562 c 48.86899,41.40592 40.34728,101.45707 10.52485,129.11959 13.97126,128.8732 -72.05712,123.63931 -85.90584,74.19625 -42.10717,55.46792 -72.60404,35.57577 -77.65589,32.03573 -51.96671,36.65764 -136.47497,71.97601 -240.97285,71.97601 -89.59324,0 -172.20219,-26.78184 -238.39056,-71.89423 -32.15098,21.46406 -65.35065,8.71172 -84.18505,-21.03475 -67.629744,71.21847 -99.721266,-10.24913 -80.424074,-60.77379 -48.411595,-23.99558 -46.17751,-82.15666 12.295227,-153.26048 -2.180576,-15.02946 -3.305279,-30.35584 -3.305279,-45.91749 0,-135.88894 93.357906,-285.94784 211.454506,-312.79979 -77.19796,-50.31243 3.99462,-110.07858 85.24169,-49.74161 28.00708,-68.054063 97.74919,-68.369668 99.73041,-8.98375 106.79636,-1.72633 166.26831,37.92392 219.52186,65.82946 29.10052,15.24904 64.29039,31.48585 105.32212,33.38127 49.74487,2.29792 75.43664,55.74812 22.5475,97.17667 31.14379,52.43088 43.85611,105.46842 44.20138,220.69091 z"
         id="path5669"
         inkscape:connector-curvature="0"
         sodipodi:nodetypes="ccccsccccscccsscc" />
    </a>
    <g
       inkscape:groupmode="layer"
       id="layer2"
       inkscape:label="head shadow"
       style="display:inline">
      <a
         style="display:inline"
         id="a5675-6"
         transform="translate(25.57926,-3.7386984)">
        <path
           style="fill:#c76c33;fill-opacity:1;stroke:none;stroke-width:1.27370083;stroke-miterlimit:4;stroke-dasharray:none;stroke-opacity:1"
           d="m 743.33781,325.62787 c 35.19733,0.11724 57.76192,11.39978 116.3624,-19.00583 -1.67167,14.66536 -10.56068,30.53682 -28.96446,44.95267 2.12839,3.58316 4.17069,7.16916 6.12885,10.77764 -46.77078,-3.85838 -78.36493,-21.25207 -93.52679,-36.72448 z"
           id="path5669-3"
           inkscape:connector-curvature="0"
           sodipodi:nodetypes="ccccc" />
      </a>
      <path
         style="display:inline;fill:#c76c33;fill-opacity:1;stroke:none;stroke-width:1.27370083;stroke-miterlimit:4;stroke-dasharray:none;stroke-opacity:1"
         d="m 807.66056,621.59241 c 11.75962,46.27315 57.03122,77.20017 103.38067,76.0541 13.97126,128.8732 -72.05712,123.63931 -85.90584,74.19625 -42.10717,55.46792 -72.60404,35.57577 -77.65589,32.03573 -51.96671,36.65764 -136.47497,71.97601 -240.97285,71.97601 -89.59324,0 -172.20219,-26.78184 -238.39056,-71.89423 -32.15098,21.46406 -65.35065,8.71172 -84.18505,-21.03475 -67.62974,71.21847 -99.721256,-10.24913 -80.42407,-60.77379 -48.411589,-23.99558 -46.177504,-82.15666 12.29523,-153.26048 -2.18058,-15.02946 -3.30528,-30.35584 -3.30528,-45.91749 0,-135.88894 93.3579,-285.94784 211.4545,-312.79979 -30.61262,-19.95124 -36.3184,-41.38907 -26.99068,-56.23475 12.12303,30.92468 52.84557,58.81622 102.21963,61.73585 -118.73139,38.28818 -82.97185,85.28366 -18.15204,120.50089 87.74275,138.66297 421.24441,197.30557 426.63223,285.41645 z"
         id="path5669-2"
         inkscape:connector-curvature="0"
         sodipodi:nodetypes="ccccsccccsccccc" />
    </g>
  </g>
  <g
     inkscape:groupmode="layer"
     id="layer4"
     inkscape:label="face shape"
     style="display:inline">
    <path
       style="fill:#e8e7e5;fill-opacity:1;stroke:none;stroke-width:1.43394423;stroke-miterlimit:4;stroke-dasharray:none;stroke-opacity:1"
       d="m 360.61328,331.5332 c -21.41421,-0.0154 -44.68515,3.44692 -70.02539,12.66992 -58.84278,21.41684 -89.86969,70.88247 -102.7168,125.14063 37.84456,-27.25765 68.71456,-44.07599 131.24414,-47.40234 101.36096,-5.39205 136.4164,68.63801 137.00586,100.22851 0.63787,34.18509 -13.60697,53.96799 -39.34961,68.18946 -29.74339,16.43165 -91.9066,19.15654 -109.2539,18.90234 -43.39508,-0.63588 -70.18763,-8.00632 -121.61133,-19.12305 28.06087,141.99993 163.20842,229.2793 323.01758,229.2793 159.80915,0 294.9566,-87.27934 323.01758,-229.2793 -51.4167,11.11543 -78.20952,18.4833 -121.60157,19.11914 -17.3473,0.2542 -79.51051,-2.47068 -109.2539,-18.90234 -25.74264,-14.22146 -39.98748,-34.00241 -39.34961,-68.1875 0.58946,-31.5905 35.6449,-105.62252 137.00586,-100.23047 62.52247,3.32598 93.3918,20.14236 131.23047,47.39453 C 817.12364,415.07879 786.09823,365.61838 727.25977,344.20312 625.89881,307.31108 557.6417,362.58944 508.92383,363.92969 472.38543,362.9245 424.85592,331.57953 360.61328,331.5332 Z m 469.35938,137.79883 c 3.04332,12.85002 5.06786,25.96799 6.19922,39.04688 -1.13084,-13.07458 -3.14019,-26.18913 -6.18165,-39.03516 -0.006,-0.004 -0.0118,-0.008 -0.0176,-0.0117 z m 6.19922,39.04688 c 0.0552,0.63773 0.0975,1.2746 0.14843,1.91211 -0.0509,-0.63765 -0.0933,-1.27425 -0.14843,-1.91211 z m 0.14843,1.91211 c 0.14393,1.80126 0.2839,3.60202 0.39453,5.40039 -0.11062,-1.79849 -0.25061,-3.599 -0.39453,-5.40039 z m 0.39453,5.40039 c 0.0184,0.29926 0.0294,0.59733 0.0469,0.89648 -0.0175,-0.29909 -0.0285,-0.59729 -0.0469,-0.89648 z m 0.0469,0.89648 c 0.25991,4.44331 0.42788,8.87639 0.49219,13.2832 0.008,0.52038 0.007,1.03738 0.0117,1.55664 -0.005,-0.52182 0.006,-1.03759 -0.002,-1.56054 -0.0643,-4.40583 -0.24215,-8.83699 -0.50195,-13.2793 z m 0.5039,14.83984 c 0.0152,1.59291 0.0191,3.18135 0.01,4.76368 0.009,-1.58262 0.005,-3.17047 -0.01,-4.76368 z m 0.01,4.76368 c -0.005,0.92204 -0.0136,1.84328 -0.0273,2.76171 0.0137,-0.91841 0.0219,-1.83969 0.0273,-2.76171 z m -0.0273,2.76171 c -0.0252,1.68353 -0.0663,3.35993 -0.11914,5.03126 0.0528,-1.67138 0.094,-3.34769 0.11914,-5.03126 z m -0.11914,5.03126 c -0.0233,0.73697 -0.0417,1.47634 -0.0703,2.21093 0.0287,-0.73482 0.047,-1.47372 0.0703,-2.21093 z m -0.0703,2.21093 c -0.0718,1.83874 -0.16636,3.66651 -0.27148,5.49024 0.10508,-1.82369 0.19976,-3.65154 0.27148,-5.49024 z m -0.27148,5.49024 c -0.0458,0.79542 -0.0904,1.59221 -0.14258,2.38476 0.0522,-0.79288 0.0967,-1.589 0.14258,-2.38476 z m -0.14258,2.38476 c -0.11714,1.77999 -0.2536,3.55098 -0.40234,5.31641 0.14873,-1.76577 0.28523,-3.53607 0.40234,-5.31641 z m -0.40234,5.31641 c -0.0675,0.80136 -0.13697,1.60205 -0.21094,2.40039 0.074,-0.79828 0.14342,-1.59909 0.21094,-2.40039 z m -0.21094,2.40039 c -0.16395,1.769 -0.34549,3.53105 -0.54102,5.28516 0.19549,-1.75414 0.37711,-3.51613 0.54102,-5.28516 z m -0.54102,5.28516 c -0.0851,0.76398 -0.17258,1.52596 -0.26367,2.28711 0.0911,-0.76095 0.17854,-1.52333 0.26367,-2.28711 z m -0.26367,2.28711 c -0.20778,1.73589 -0.42942,3.4645 -0.66797,5.18554 0.23846,-1.7207 0.46027,-3.45 0.66797,-5.18554 z m -0.66797,5.18554 c -0.10825,0.78114 -0.22139,1.55983 -0.33593,2.33789 0.11456,-0.77804 0.22767,-1.55677 0.33593,-2.33789 z m -0.33593,2.33789 c -0.25649,1.74192 -0.52661,3.47865 -0.81446,5.20508 0.28795,-1.72723 0.55789,-3.46234 0.81446,-5.20508 z m -0.81446,5.20508 c -0.11763,0.70559 -0.24044,1.40834 -0.36328,2.11133 0.12287,-0.7031 0.24562,-1.40562 0.36328,-2.11133 z m -0.36328,2.11133 c -0.30505,1.74564 -0.6201,3.48532 -0.95703,5.21484 0.33677,-1.72894 0.65212,-3.46979 0.95703,-5.21484 z m -1.10351,5.93945 c 0.005,-0.001 0.009,-0.003 0.0137,-0.004 0.0451,-0.22839 0.0824,-0.46079 0.12695,-0.68946 -0.0452,0.23198 -0.0948,0.46168 -0.14062,0.69336 z m -646.03516,0 c -0.014,-0.0711 -0.029,-0.14174 -0.043,-0.21289 0.0139,0.0705 0.0251,0.1424 0.0391,0.21289 0.001,2.9e-4 0.003,-2.8e-4 0.004,0 z m 1.96484,-120.79492 c -0.001,10e-4 -0.002,0.003 -0.004,0.004 -0.0237,0.10005 -0.0448,0.20069 -0.0684,0.30078 0.0239,-0.10162 0.0482,-0.2031 0.0723,-0.30469 z"
       id="path5845-8"
       inkscape:connector-curvature="0" />
    <g
       inkscape:groupmode="layer"
       id="layer8"
       inkscape:label="face shadow"
       style="display:inline">
      <path
         style="fill:#d3d0d6;fill-opacity:1;stroke:none;stroke-width:0.75590551;stroke-miterlimit:4;stroke-dasharray:none;stroke-opacity:1"
         d="m 359.2207,331.53711 c -21.0297,0.13313 -43.8407,3.64251 -68.63281,12.66601 -58.84278,21.41683 -89.86969,70.88247 -102.7168,125.14063 16.8028,-12.10226 32.23569,-22.14013 49.66993,-29.85937 15.94957,-46.5605 58.82838,-86.23574 135.95703,-107.52735 -4.66566,-0.30259 -9.42434,-0.45064 -14.27735,-0.41992 z m -82.85937,275.91016 c -27.80313,-2.91046 -52.38266,-9.07814 -90.45508,-17.3086 28.06087,141.99993 163.20842,229.2793 323.01758,229.2793 139.06045,0 259.44958,-66.08551 306.85547,-176.80664 -220.24022,172.78014 -445.06732,90.22653 -539.41797,-35.16406 z m -90.45508,-17.3086 c -0.014,-0.0711 -0.029,-0.14174 -0.043,-0.21289 0.0139,0.0705 0.0251,0.1424 0.0391,0.21289 10e-4,2.9e-4 0.003,-2.8e-4 0.004,0 z m -0.043,-0.21289 c -0.42064,-2.13766 -0.8137,-4.2908 -1.18555,-6.45312 0.37194,2.16287 0.7648,4.31492 1.18555,6.45312 z m -1.18555,-6.45312 c -0.0521,-0.30294 -0.10512,-0.60479 -0.15625,-0.90821 0.0511,0.3033 0.10418,0.60539 0.15625,0.90821 z m -0.15625,-0.90821 c -0.35775,-2.12297 -0.68974,-4.25786 -1,-6.40429 0.3102,2.14603 0.64233,4.28171 1,6.40429 z m -1,-6.40429 c -0.0484,-0.33517 -0.0973,-0.67013 -0.14453,-1.00586 0.0473,0.33578 0.0961,0.67064 0.14453,1.00586 z m -0.14453,-1.00586 c -0.29701,-2.10911 -0.56958,-4.22988 -0.82031,-6.36133 0.25072,2.13136 0.52331,4.25231 0.82031,6.36133 z m -0.82031,-6.36133 c -0.0453,-0.38521 -0.091,-0.77032 -0.13476,-1.15625 0.0438,0.38584 0.0895,0.77114 0.13476,1.15625 z m -0.13476,-1.15625 c -0.2439,-2.14947 -0.46377,-4.31056 -0.66016,-6.48242 0.19639,2.17176 0.41627,4.33306 0.66016,6.48242 z m -0.66016,-6.48242 c -0.0291,-0.3219 -0.0579,-0.64442 -0.0859,-0.9668 0.0281,0.32238 0.0568,0.64491 0.0859,0.9668 z m -0.0859,-0.9668 c -0.19371,-2.22574 -0.36445,-4.46199 -0.50781,-6.71094 0.14338,2.24937 0.31406,4.48479 0.50781,6.71094 z m -0.50781,-6.71094 c -0.0185,-0.29056 -0.0351,-0.5821 -0.0527,-0.87304 0.0177,0.29091 0.0342,0.58252 0.0527,0.87304 z m -0.0527,-0.87304 c -0.13816,-2.27407 -0.25366,-4.55798 -0.33984,-6.85547 0.0862,2.29731 0.2017,4.58157 0.33984,6.85547 z m -0.33984,-6.85547 c -0.0106,-0.28261 -0.0175,-0.56665 -0.0273,-0.84961 0.01,0.28291 0.0167,0.56705 0.0273,0.84961 z m -0.0273,-0.84961 c -0.0804,-2.31836 -0.13908,-4.64639 -0.16602,-6.98828 0.0269,2.34165 0.0856,4.67016 0.16602,6.98828 z m -0.16602,-6.98828 c -0.002,-0.21622 -0.002,-0.43398 -0.004,-0.65039 0.002,0.21644 10e-4,0.43414 0.004,0.65039 z m -0.004,-0.65039 c -0.023,-2.45059 -0.0205,-4.91265 0.0156,-7.38868 -0.0361,2.47621 -0.0386,4.93792 -0.0156,7.38868 z m 0.0156,-7.38868 c 0.0353,-2.41647 0.10192,-4.84043 0.19531,-7.26953 -0.0934,2.42906 -0.16005,4.85311 -0.19531,7.26953 z m 0.19531,-7.26953 c 0.0316,-0.82227 0.0846,-1.64729 0.12305,-2.4707 -0.0384,0.82333 -0.0914,1.64851 -0.12305,2.4707 z m 0.12305,-2.4707 c 0.0761,-1.6321 0.15074,-3.26473 0.25391,-4.90039 -0.1032,1.63608 -0.17777,3.26787 -0.25391,4.90039 z m 0.25391,-4.90039 c 0.0573,-0.90857 0.13539,-1.81915 0.20117,-2.72852 -0.0658,0.90965 -0.14385,1.81968 -0.20117,2.72852 z m 0.20117,-2.72852 c 0.11133,-1.53917 0.2215,-3.07846 0.35742,-4.61914 -0.13592,1.54067 -0.24609,3.07998 -0.35742,4.61914 z m 0.35742,-4.61914 c 0.16989,-1.92571 0.35542,-3.85104 0.56445,-5.77734 -0.20903,1.92631 -0.39457,3.85161 -0.56445,5.77734 z m 0.56445,-5.77734 c 0.0353,-0.32497 0.073,-0.64966 0.10938,-0.97461 -0.0364,0.32498 -0.0741,0.64961 -0.10938,0.97461 z m 0.10938,-0.97461 c 0.23081,-2.06094 0.48106,-4.12275 0.75781,-6.18164 -0.27679,2.05912 -0.52698,4.12046 -0.75781,6.18164 z m 0.75781,-6.18164 c 0.042,-0.31276 0.0877,-0.62482 0.13086,-0.9375 -0.0431,0.31264 -0.0888,0.62478 -0.13086,0.9375 z m 0.13086,-0.9375 c 0.28598,-2.07402 0.59198,-4.14574 0.92578,-6.21484 -0.33381,2.06916 -0.63979,4.14075 -0.92578,6.21484 z m 0.92578,-6.21484 c 0.0468,-0.28986 0.0968,-0.57942 0.14453,-0.86915 -0.0477,0.28985 -0.0977,0.57918 -0.14453,0.86915 z m 0.14453,-0.86915 c 0.34741,-2.1097 0.71489,-4.21673 1.11328,-6.31835 -0.39841,2.10174 -0.76585,4.20853 -1.11328,6.31835 z m 3.51367,-17.58398 c -0.001,10e-4 -0.002,0.003 -0.004,0.004 -0.0237,0.10005 -0.0448,0.20069 -0.0684,0.30078 0.0239,-0.10162 0.0482,-0.2031 0.0723,-0.30469 z m -0.0723,0.30469 c -0.20333,0.86359 -0.39958,1.7298 -0.59375,2.5957 0.19426,-0.8663 0.39032,-1.73172 0.59375,-2.5957 z m -0.59375,2.5957 c -0.0713,0.318 -0.14672,0.63483 -0.2168,0.95313 0.0701,-0.31813 0.14553,-0.6353 0.2168,-0.95313 z m -0.2168,0.95313 c -0.0525,0.23853 -0.10051,0.4781 -0.15234,0.71679 0.0518,-0.23872 0.0998,-0.47823 0.15234,-0.71679 z m -0.15234,0.71679 c -0.45057,2.07497 -0.87621,4.1565 -1.27539,6.24219 0.39924,-2.086 0.82475,-4.16691 1.27539,-6.24219 z m -1.27539,6.24219 c -0.0271,0.14148 -0.0571,0.2823 -0.084,0.42383 0.0268,-0.14145 0.0569,-0.28243 0.084,-0.42383 z"
         id="path5845-8-9"
         inkscape:connector-curvature="0"
         sodipodi:nodetypes="sscccsccscccccccccccccccccccccccccccccccccccccccccccccccccccccccccccccccccccccccccccccccccccccccccccccccccccccccccccc" />
    </g>
  </g>
  <g
     inkscape:groupmode="layer"
     id="layer5"
     inkscape:label="eye shape"
     style="display:inline">
    <path
       id="path5845-8-0"
       style="display:inline;fill:#77889b;fill-opacity:1;stroke:none;stroke-width:1.43394423;stroke-miterlimit:4;stroke-dasharray:none;stroke-opacity:1"
       d="m 456.12097,522.17042 c -0.58946,-31.5905 -35.64557,-105.62094 -137.00653,-100.22889 -62.53206,3.32649 -93.40104,20.14605 -131.24764,47.4056 -4.71454,19.91257 -6.98013,40.47051 -7.27278,60.52428 -0.30687,21.02823 1.52971,41.14355 5.3084,60.26647 51.42628,11.1172 78.21828,18.48704 121.61447,19.12294 17.3473,0.2542 79.51037,-2.46948 109.25376,-18.90114 25.74264,-14.22146 39.98819,-34.00417 39.35032,-68.18926 z"
       inkscape:connector-curvature="0"
       sodipodi:nodetypes="sscscsss" />
    <path
       id="path5845-8-0-4"
       style="display:inline;fill:#77889b;fill-opacity:1;stroke:none;stroke-width:1.43394423;stroke-miterlimit:4;stroke-dasharray:none;stroke-opacity:1"
       d="m 561.73598,522.16704 c 0.58946,-31.5905 35.64557,-105.62094 137.00653,-100.22889 62.53205,3.32649 93.40103,20.14605 131.24763,47.4056 4.71454,19.91257 6.98013,40.47051 7.27278,60.52428 0.30687,21.02823 -1.52971,41.14355 -5.3084,60.26647 -51.42628,11.1172 -78.21828,18.48704 -121.61446,19.12294 -17.3473,0.2542 -79.51037,-2.46948 -109.25376,-18.90114 -25.74264,-14.22146 -39.98819,-34.00417 -39.35032,-68.18926 z"
       inkscape:connector-curvature="0"
       sodipodi:nodetypes="sscscsss" />
    <g
       inkscape:groupmode="layer"
       id="layer9"
       inkscape:label="eye shadow">
      <path
         id="path5845-8-0-5"
         style="display:inline;fill:#5e6f7e;fill-opacity:1;stroke:none;stroke-width:0.37795275;stroke-miterlimit:4;stroke-dasharray:none;stroke-opacity:1"
         d="m 237.43625,439.7936 c -17.42268,7.71805 -32.84298,17.75862 -49.63725,29.85493 -4.71454,19.91257 -6.98013,40.47051 -7.27278,60.52428 -0.30687,21.02823 1.52971,41.14355 5.3084,60.26647 38.17445,8.25245 62.77467,14.44 90.66873,17.34101 -36.05239,-46.37747 -53.65303,-109.58404 -39.0671,-167.98669 z"
         inkscape:connector-curvature="0"
         sodipodi:nodetypes="ccsccc" />
    </g>
  </g>
  <g
     inkscape:groupmode="layer"
     id="layer6"
     inkscape:label="face"
     style="display:inline">
    <path
       style="fill:#333a42;fill-opacity:1;stroke:none;stroke-width:0.38498867;stroke-miterlimit:4;stroke-dasharray:none;stroke-opacity:1"
       d="m 418.02462,531.32363 c -0.10744,24.12279 -23.30514,29.14016 -31.83071,8.05265 -5.45838,-13.50102 -16.55632,-20.2743 -31.41085,-19.56986 -12.26701,0.58173 -23.66864,10.84681 -26.30026,19.27645 -6.0608,19.41405 -32.59356,16.02724 -33.15921,-3.81754 -0.8008,-28.09463 26.45885,-55.63013 60.73102,-57.2554 34.27218,-1.62528 62.07745,29.19091 61.97001,53.3137 z"
       id="path6025"
       inkscape:connector-curvature="0"
       sodipodi:nodetypes="zsssssz" />
    <path
       style="fill:#333a42;fill-opacity:1;stroke:none;stroke-width:1px;stroke-linecap:butt;stroke-linejoin:miter;stroke-opacity:1"
       d="m 477.57741,594.4761 c -1.97461,-2.44384 -3.44017,-5.35824 -3.85304,-8.47288 -0.41287,-3.11464 0.2963,-6.43124 2.24244,-8.89781 1.34152,-1.70026 3.20435,-2.93742 5.19822,-3.78302 1.99387,-0.84561 4.12458,-1.32004 6.25825,-1.69154 7.08408,-1.23343 14.30962,-1.375 21.50027,-1.375 7.19065,0 14.41619,0.14157 21.50027,1.375 2.13367,0.3715 4.26438,0.84593 6.25825,1.69154 1.99387,0.8456 3.8567,2.08276 5.19822,3.78302 1.94614,2.46657 2.65531,5.78317 2.24244,8.89781 -0.41287,3.11464 -1.87843,6.02904 -3.85304,8.47288 -3.60018,4.45571 -8.83365,7.38979 -14.3328,8.99414 -5.49916,1.60435 -11.28493,1.96418 -17.01334,1.96418 -5.72841,0 -11.51418,-0.35983 -17.01334,-1.96418 -5.49915,-1.60435 -10.73262,-4.53843 -14.3328,-8.99414 z"
       id="path6017-4"
       inkscape:connector-curvature="0"
       inkscape:path-effect="#path-effect6019-2"
       inkscape:original-d="m 477.57741,594.4761 c -2.93731,-3.75265 -4.40959,-11.54483 -1.6106,-17.37069 2.04899,-4.82585 4.86447,-3.92398 11.45647,-5.47456 6.64692,-1.5635 14.73033,-1.375 21.50027,-1.375 6.76994,0 14.85335,-0.1885 21.50027,1.375 6.592,1.55058 9.40748,0.64871 11.45647,5.47456 2.79899,5.82586 1.32671,13.61804 -1.6106,17.37069 -2.93731,3.75265 -22.22875,10.95832 -31.34614,10.95832 -9.11739,0 -28.40883,-7.20567 -31.34614,-10.95832 z"
       sodipodi:nodetypes="zcsssczsz"
       transform="matrix(-1,0,0,1,1017.8471,0)" />
    <path
       style="fill:#333a42;fill-opacity:1;stroke:none;stroke-width:1px;stroke-linecap:butt;stroke-linejoin:miter;stroke-opacity:1"
       d="m 483.17544,667.64909 c -10.67287,1.15277 -21.97462,-1.18956 -30.41631,-7.82107 -2.03543,-1.59897 -3.9145,-3.46136 -5.16572,-5.72721 -1.25122,-2.26586 -1.82967,-4.97705 -1.20193,-7.48815 0.58206,-2.32837 2.20003,-4.36298 4.30325,-5.5191 2.10321,-1.15612 4.65677,-1.43588 6.98013,-0.83413 1.61325,0.41783 3.09054,1.23028 4.5962,1.94454 6.05361,2.87173 12.84153,4.21988 19.52458,3.74042 6.68305,-0.47946 13.24293,-2.80135 18.65918,-6.74562 3.3158,-2.41466 6.19803,-5.42285 8.46873,-8.83884 2.2707,3.41599 5.15293,6.42418 8.46873,8.83884 5.41625,3.94427 11.97613,6.26616 18.65918,6.74562 6.68305,0.47946 13.47097,-0.86869 19.52458,-3.74042 1.50566,-0.71426 2.98295,-1.52671 4.5962,-1.94454 2.32336,-0.60175 4.87692,-0.32199 6.98013,0.83413 2.10322,1.15612 3.72119,3.19073 4.30325,5.5191 0.62774,2.5111 0.0493,5.22229 -1.20193,7.48815 -1.25122,2.26585 -3.13029,4.12824 -5.16572,5.72721 -8.44169,6.63151 -19.74344,8.97384 -30.41631,7.82107 -9.27009,-1.00125 -18.25671,-4.51433 -25.74811,-10.06555 -7.4914,5.55122 -16.47802,9.0643 -25.74811,10.06555 z"
       id="path6021-1"
       inkscape:connector-curvature="0"
       inkscape:path-effect="#path-effect6023-8"
       inkscape:original-d="m 483.17544,667.64909 c -10.76277,0.0795 -24.8781,-4.22745 -30.41631,-7.82107 -4.35072,-3.21862 -9.96311,-11.03411 -6.36765,-13.21536 3.59546,-2.18124 9.75032,-7.00042 11.28338,-6.35323 1.53307,0.64718 -8.13273,2.94727 4.5962,1.94454 12.72892,-1.00273 35.35986,-0.0579 38.18376,-3.0052 2.82391,-2.94728 5.64681,-5.89356 8.46873,-8.83884 2.82192,2.94528 5.64482,5.89156 8.46873,8.83884 2.8239,2.94727 25.45484,2.00247 38.18376,3.0052 12.72893,1.00273 3.06313,-1.29736 4.5962,-1.94454 1.53306,-0.64719 7.68792,4.17199 11.28338,6.35323 3.59546,2.18125 -2.01693,9.99674 -6.36765,13.21536 -5.53821,3.59362 -19.65354,7.90055 -30.41631,7.82107 -10.34725,-0.0764 -16.56223,-6.64887 -25.74811,-10.06555 -9.18588,3.41668 -15.40086,9.98915 -25.74811,10.06555 z"
       sodipodi:nodetypes="scccsscsscccscs"
       transform="matrix(-1.1035239,0,0,1,1070.5328,-3.25)" />
    <path
       style="fill:#333a42;fill-opacity:1;stroke:none;stroke-width:0.38498867;stroke-miterlimit:4;stroke-dasharray:none;stroke-opacity:1"
       d="m 599.76421,531.07836 c 0.0123,24.12303 23.18998,29.2319 31.79868,8.17819 5.51162,-13.47938 16.6362,-20.20882 31.48783,-19.44577 12.26462,0.63013 23.62566,10.94012 26.22399,19.38008 5.98416,19.43781 32.53007,16.15572 33.17402,-3.68668 0.91165,-28.09125 -26.23914,-55.73409 -60.50463,-57.49459 -34.2655,-1.76049 -62.19214,28.94575 -62.17989,53.06877 z"
       id="path6025-8"
       inkscape:connector-curvature="0"
       sodipodi:nodetypes="zsssssz" />
  </g>
</svg>
